<mxfile host="app.diagrams.net" modified="2024-03-09T04:05:32.342Z" agent="Mozilla/5.0 (Windows NT 10.0; Win64; x64) AppleWebKit/537.36 (KHTML, like Gecko) Chrome/122.0.0.0 Safari/537.36" version="23.1.6" etag="_V3fOtvVclsC1kQ7MDBU" type="github">
  <diagram name="Страница — 1" id="lF8mwmy_1jQe1EsFrOoU">
    <mxGraphModel>
      <root>
        <mxCell id="0" />
        <mxCell id="1" parent="0" />
      </root>
    </mxGraphModel>
  </diagram>
</mxfile>
